<?xml version="1.0" encoding="UTF-8" standalone="no"?>
<svg
   xmlns:dc="http://purl.org/dc/elements/1.1/"
   xmlns:cc="http://creativecommons.org/ns#"
   xmlns:rdf="http://www.w3.org/1999/02/22-rdf-syntax-ns#"
   xmlns:svg="http://www.w3.org/2000/svg"
   xmlns="http://www.w3.org/2000/svg"
   xmlns:sodipodi="http://sodipodi.sourceforge.net/DTD/sodipodi-0.dtd"
   xmlns:inkscape="http://www.inkscape.org/namespaces/inkscape"
   width="120.00001pt"
   height="120pt"
   version="1.1"
   viewBox="0 0 120.00001 120"
   id="svg14"
   sodipodi:docname="circle.svg"
   inkscape:version="1.0.2-2 (e86c870879, 2021-01-15)"
   inkscape:export-filename="C:\Users\jacek\OneDrive\Documents\vps\tic-tac-toe\t-t-t-4\www\cross.png"
   inkscape:export-xdpi="25"
   inkscape:export-ydpi="25">
  <metadata
     id="metadata20">
    <rdf:RDF>
      <cc:Work
         rdf:about="">
        <dc:format>image/svg+xml</dc:format>
        <dc:type
           rdf:resource="http://purl.org/dc/dcmitype/StillImage" />
        <dc:title />
      </cc:Work>
    </rdf:RDF>
  </metadata>
  <defs
     id="defs18" />
  <sodipodi:namedview
     pagecolor="#ffffff"
     bordercolor="#666666"
     borderopacity="1"
     objecttolerance="10"
     gridtolerance="10"
     guidetolerance="10"
     inkscape:pageopacity="0"
     inkscape:pageshadow="2"
     inkscape:window-width="1920"
     inkscape:window-height="1057"
     id="namedview16"
     showgrid="false"
     inkscape:zoom="1.4142136"
     inkscape:cx="12.54861"
     inkscape:cy="146.96986"
     inkscape:window-x="-8"
     inkscape:window-y="-8"
     inkscape:window-maximized="1"
     inkscape:current-layer="layer2"
     fit-margin-top="0"
     fit-margin-left="0"
     fit-margin-right="0"
     fit-margin-bottom="0"
     inkscape:document-rotation="0" />
  <g
     inkscape:groupmode="layer"
     id="layer2"
     inkscape:label="circle"
     style="display:inline"
     transform="translate(-424.54203,-424.51634)">
    <path
       d="m 544.30868,488.38223 c -0.0272,1.27632 -0.18287,2.83492 -0.53696,4.64491 -0.26459,1.82939 -0.61868,3.92165 -1.31906,6.21896 -2.30741,9.13903 -8.71604,22.43942 -22.63081,32.47201 -6.86385,4.98531 -15.58725,8.88379 -25.45579,10.26823 -4.93776,0.86633 -10.01199,0.76578 -15.38505,0.33648 -5.15959,-0.6923 -10.51004,-1.87187 -15.63805,-3.99908 -5.08568,-2.18513 -10.10562,-4.93115 -14.58815,-8.59369 -4.46311,-3.66641 -8.50984,-7.99806 -11.9066,-12.92168 -6.57209,-9.94348 -10.4164,-22.28101 -9.71603,-34.85417 0.37354,-12.61574 5.34636,-24.46614 12.66564,-33.68983 3.74709,-4.56758 8.04285,-8.52408 12.71245,-11.77317 4.75487,-3.11334 9.77053,-5.59243 14.92982,-7.2942 10.30385,-3.24096 21.08583,-3.57363 30.41248,-1.56632 9.43204,2.05365 17.61535,6.19965 24.05127,11.21575 13.02324,10.17121 18.55668,23.05031 20.74714,31.70964 0.68483,2.17741 0.88328,4.19631 1.19066,5.91738 0.34631,1.72108 0.42025,3.19849 0.47471,4.39353 0.15175,2.39018 0.22568,3.63938 0.22568,3.63938 0,0 -0.0428,-1.27247 -0.11673,-3.70126 -0.0194,-1.21831 -0.07,-2.72275 -0.37355,-4.48244 -0.25292,-1.76355 -0.43969,-3.8173 -1.07003,-6.05658 -2.00777,-8.88379 -7.50196,-22.17606 -20.82882,-32.78885 -6.59151,-5.21728 -15.03541,-9.58764 -24.82127,-11.72267 -9.80947,-1.91444 -20.8368,-1.82939 -31.60384,1.82553 -10.7242,3.53878 -21.03502,10.43853 -28.5836,20.22359 -7.68485,9.61082 -12.30405,22.3424 -12.59591,35.3413 -0.0895,6.61737 0.78211,13.0494 2.64588,19.19093 1.97282,6.09134 4.84442,11.76922 8.41252,16.84739 7.21797,10.09002 17.2687,17.55827 27.9959,21.48795 21.78609,8.23785 44.12503,2.20453 57.48696,-8.33073 13.79026,-10.53952 19.72015,-24.06416 21.7861,-33.18785 0.64592,-2.29731 0.90663,-4.39739 1.13617,-6.20737 0.30739,-1.80227 0.39689,-3.34928 0.40078,-4.61006 0.0856,-2.51008 0.12841,-3.82502 0.12841,-3.82502 0,-0.004 -0.0778,1.32652 -0.23347,3.87145 z"
       id="path4-2"
       style="stroke-width:0.9931" />
  </g>
</svg>
